<?xml version="1.0" encoding="iso-8859-1"?>
<!-- Uploaded to: SVG Repo, www.svgrepo.com, Generator: SVG Repo Mixer Tools -->
<svg version="1.1" id="Layer_1" xmlns="http://www.w3.org/2000/svg" xmlns:xlink="http://www.w3.org/1999/xlink" 
	 viewBox="0 0 512 512" xml:space="preserve">
<circle style="fill:#4AB8A1;" cx="256" cy="256" r="256"/>
<path style="fill:#1A1A1A;" d="M296,196c-6,0-20,0-20,0v-84h-40v84c0,0-14,0-20,0c-12,0-20,8-20,24c0,47.832,0,214.936,0,284.86
	c19.252,4.624,39.328,7.14,60,7.14s40.752-2.516,60-7.14c0-69.916,0-237.024,0-284.86C316,204,308,196,296,196z"/>
<g>
	<path style="fill:#0D0D0D;" d="M264,112v84c0,0,6.116,0,12,0v-84H264z"/>
	<path style="fill:#0D0D0D;" d="M296,196c-2.936,0-7.804,0-12,0c12,0,20,8,20,24c0,48.428,0,219.152,0,287.436
		c4.036-0.76,8.036-1.624,12-2.584c0-69.916,0-237.024,0-284.86C316,204,308,196,296,196z"/>
</g>
<path style="opacity:0.2;fill:#F5F5F5;enable-background:new    ;" d="M244,204h-16c-10.304,0-24,2.488-24,24v278.704
	c2.644,0.548,5.328,0.988,8,1.448V228c0-13.384,5.868-16,16-16h20c2.212,0,4-1.792,4-4v-72h-8V204z"/>
<rect x="196" y="272" style="fill:#992B1F;" width="120" height="108"/>
<rect x="196" y="284" style="fill:#FFE1D9;" width="120" height="84"/>
<path style="fill:#CC584C;" d="M284,88c0,4.4-3.6,8-8,8h-40c-4.4,0-8-3.6-8-8V48c0-4.4,3.6-8,8-8h40c4.4,0,8,3.6,8,8V88z"/>
<path style="fill:#BF5347;" d="M276,40h-8c4.4,0,8,3.6,8,8v40c0,4.4-3.6,8-8,8h8c4.4,0,8-3.6,8-8V48C284,43.6,280.4,40,276,40z"/>
<rect x="236" y="96" style="fill:#CC584C;" width="40" height="16"/>
<g>
	<rect x="268" y="96" style="fill:#BF5347;" width="8" height="16"/>
	<rect x="236" y="96" style="fill:#BF5347;" width="40" height="8"/>
</g>
<path style="fill:#E66356;" d="M240,88c-2.212,0-4-1.792-4-4V48c0-2.208,1.788-4,4-4s4,1.792,4,4v36C244,86.208,242.212,88,240,88z"
	/>
</svg>