<svg xmlns="http://www.w3.org/2000/svg" viewBox="0 0 521.5 295.5"><g fill="#32CBFF"><path d="M168.8 198.3h107.1V197H168.8zM27.6 196.9l107.1.1v-1.4H27.6z"/><path d="M30.3 126.4l4.6 2.5s-5.6 14.6-6.7 22.2c-1.1 7.6-3.8 20.3 2.4 21.4 4.6.7 5.8-5 9-14.3 2.4-7 6.2-15.5 11.3-26.3 9.4-18 10.2-20.7 19.3-31.7.9-1.1 3-3.5 3.3-3.3.1.1-.1 1.6-.3 3.9-.3 3.5-.8 8.7-1.4 12.7-1 6.5-5.4 36.5-4.1 62.5s19.5 19.2 20.2 19 11.4-5.9 21.1-16.2c9.7-10.3 34.4-42.7 37.8-48.9 3.3-6.2-4.7-7.5-6.2-5.8-1.4 1.8-22.3 31.7-32.8 43-10.5 11.3-20.5 21.5-26.3 20.1-5.8-1.4-5.8-16.9-5.6-21.5.2-4.6 1.4-24.4 2.7-35.4s5.4-34.2 2.7-38.5c-2.6-4.3-12.4-4-18.7 4.4 0 0-3.8-1.8-4.6-2.6 0 0 11.1-26.8 8.8-34-2.3-7.3-6.3-6.8-8.1-6.7-1.8.1-3.9 1.7-4 2.5-.1.8-2.1 11.9-4.2 17-2 5.1-8.5 20.4-10.5 23.7-2 3.3-11.3 18.1-14.9 22.5s-14.8 18-20.5 23.7c-5.1 5.1 2.4 9.9 4.8 7.5 1.6-1.6 18.4-19.4 20.9-23.4z"/><path fill="#32CBFF" d="M98 90.3s8.8-8.7 12.2-14c3.4-5.2 7.5-12.1 7.5-12.9 0-.6-3-2.6-3.9-3.1-.9-.5-3.1-1.7-5.2-1.6-2.2.1-4.4.8-5.2 2.9-.9 2.1.2 8-.7 12.9-.9 4.9-1.5 10.4-4.7 15.8z"/></g><g fill="#843D2C"><path d="M169.3 49.7c-3.6 2.8-6.9 5.2-10 7.8-10 8.1-20 16.1-29.9 24.3-5.2 4.4-8 10.1-7.6 17.1.3 4.5 2.5 8 6.7 9.9.5.2 1.1.5 1.6.4.7-.1 1.7-.2 2.1-.7.3-.3-.1-1.4-.5-1.9-2.9-3.7 1.1-8.6 4.7-8.9 5.5-.5 8.7 4 6.9 9.6-2.4 7.3-10.2 10.8-17.5 7.8-7.3-3-12-11.7-11-19.5 1-8.2 5.4-14.4 11.5-19.4 14.2-11.6 28.7-22.9 43.1-34.3 1.3-1 1.6-2.2 1.8-3.6 1.3-8.7 2.3-17.4 3.9-26.1 1.1-6 4.5-9.8 10.5-9 4.3.6 7.4 3.2 9.4 6.9 3 5.7 2 11.2-.9 16.6-3.5 6.5-8.7 11.4-14.6 15.5-2.2 1.5-3.2 3.2-3.5 5.7-1.2 8-2.7 16-3.8 24-.8 5.6-1.3 11.3-2 16.9-.9 7.6-1.7 15.2-2.6 22.8-.6 5.6-1.2 11.2-1.9 16.8-.9 7.6-1.7 15.1-2.6 22.7-.7 6.7-1.5 13.3-2.2 20-.5 5-1.1 9.9-1.7 15.3 1.7-2 3.2-3.7 4.7-5.4 9.3-10.9 18.5-21.8 27.8-32.7 1.6-1.9 3.2-3.7 5-5.3 1.2-1 1.5-2.2 1.8-3.6 2.7-14.2 9.9-25.5 22.1-33.3 6.1-3.8 12.8-4.9 19.7-2.4 6.7 2.4 8.9 7.1 8.4 14.2-.1.8-.2 1.6-.3 2.3.1.1.3.2.4.3 2-1.9 4.2-3.7 6.1-5.8 2.7-3 5.1-6.1 7.6-9.2.4-.5 1-.8 1.4-1.2.4-.4.8-.9.8-1.4.6-8 2.2-15.7 4.7-23.3.1-.3.2-.5.3-.8.7-1.9 2.3-2.8 3.9-2.3 1.8.6 2.6 2.4 2 4.4-1 3.7-2.2 7.4-3 11.1-1.3 5.8-2 11.7-1.3 17.7.8 6.3 4.5 10.1 10.9 10.9 7.3.9 13.5-1.6 18.9-6.3 2.2-1.9 2.6-4.3 2.6-6.9.1-7.8.3-15.7.4-23.5 0-2.4 1.2-3.8 3.2-3.8 1.9 0 3.2 1.6 3.2 3.9-.2 11.3-.5 22.6-.7 33.9-.1 6.3-.3 12.6-.3 18.9-.1 5.2 0 10.3 0 15.7.3-.4.7-.9 1-1.3 6.2-8.4 12.7-16.5 19.9-24 11.8-12.4 25.8-21.4 41.5-28 10.4-4.4 21.1-7 32.3-8.3 15-1.7 29.6-4.9 43.9-9.6.4-.1.7-.2 1.3 0-2.1 1.1-4.3 2.4-6.5 3.4-10.4 4.9-21.5 7.9-32.7 10.2-10.3 2.1-20.7 3.9-30.6 7.9-12 4.8-23.6 10.4-33.7 18.6-8.4 6.8-15.8 14.6-22.4 23.1-4.6 5.9-9 12-13.4 18.1-.8 1.1-1.2 2.6-1.3 3.9-.7 11.8-1.4 23.7-2.1 35.5-.4 7.4-.8 14.9-1.5 22.3-1.2 13.2-3 26.4-6.8 39.1-2 6.6-5.9 11.7-12.8 13.8-9.7 3-20.2-3.3-22.6-13.4-1.5-6.5-.8-13 .5-19.4 3-14.2 8.8-27.4 15.4-40.2 6.4-12.3 13.1-24.5 21.2-35.9 1.7-2.4 2.5-4.7 2.5-7.6 0-10.9.2-21.7.3-32.6V121c-.4.2-.8.5-1.3.8-5.4 3.7-11.3 5.7-17.9 5.3-9.4-.5-16.6-4.7-18.5-14.4 0-.2-.2-.4-.4-.8-.9 1.1-1.8 2.1-2.6 3.2-4.1 5.2-8.7 9.8-14.4 13.1-1.8 1.1-3 2.5-3.8 4.4-2.3 5.4-5.6 10.1-9.8 14.3-5.3 5.2-11.5 8.6-18.9 9.2-6.7.5-13-.6-16.8-7.6-2.4 2.8-4.7 5.5-6.9 8.2-10.3 13-20.7 26-31 39-.4.4-.7.9-1.1 1.3-3 2.7-2.8 6.5-3.3 10.1-1.6 13.1-2.8 26.2-5.7 39-2.2 9.9-4 20-8.3 29.4-2.6 5.6-5.7 10.7-10.7 14.6-11.2 8.7-26 1-29-7.5-1.9-5.2-1.4-10.4 0-15.6 2.3-8.6 6.6-16.2 11.4-23.7 8-12.6 17.5-24 27.4-35.2 3-3.4 6-6.7 9-10 .5-.5.8-1.4.9-2.1 1.1-9.6 2.3-19.3 3.3-28.9 1-8.7 1.8-17.4 2.8-26.1 1-8.6 2-17.1 3-25.7 1-8.6 1.8-17.3 2.9-25.9 1.3-10.4 2.8-20.8 4.2-31.2 1-2.9 1.5-5.4 1.9-8.5zm133.6 129c-.1 0-.3-.1-.4-.1-.2.3-.4.5-.6.8-6.7 9.9-12.7 20.2-17.7 31-4.7 9.9-9.1 20-11.9 30.7-1.7 6.3-3 12.6-1.9 19.1 1.5 9 10.8 12.5 17.4 6.7 3.3-2.9 5.4-6.5 6.1-10.7 1.5-8.6 3-17.2 4.1-25.8 1-7.8 1.6-15.7 2.4-23.5.7-7.1 1.3-14.2 2-21.3.1-2.4.3-4.6.5-6.9zm-152.7 31.4c-.3.1-.5.1-.5.2-9 9.8-17.7 19.8-25.3 30.7-5.1 7.2-9.7 14.7-12.6 23.1-1.6 4.5-2.6 9.1-1.5 13.9 1.3 5.9 6.9 10.1 12.6 9.2 4.5-.7 7.5-3.5 10.1-7 4.2-5.7 6.6-12.2 8.1-19 2.8-12.9 5.3-25.8 7.8-38.8.6-4 .8-8.1 1.3-12.3zm85.1-75.6c-9.7 1-17.7-2-24.2-9-2.9 4.6-5.1 9.4-5.9 14.7-.8 5.5 1.1 8.3 6.4 9.5.4.1.8.1 1.2.1 3.6.3 6.9-.5 9.9-2.3 5.2-3.2 9.6-7.2 12.6-13zm5.7-18.2c.3-5.1-3-7-6.9-6.7-5.2.3-9.6 2.7-13.1 6.5-2.1 2.3-1.9 4.3.5 6.4.4.3.8.7 1.2 1 4.4 2.7 9.3 3.8 14.4 3.2.5-.1 1.1-.5 1.3-.9 1.6-2.9 2.6-6 2.6-9.5zm-62.7-81.4c5.2-3.9 9.5-8.3 11.5-14.4.9-2.7.4-5.1-1.2-7.4-.9-1.2-1.9-2.2-3.5-1.9-1.7.3-2.6 1.4-3.2 3-.2.5-.3 1.1-.4 1.7-.7 3.6-1.3 7.2-1.9 10.9-.5 2.6-.9 5.4-1.3 8.1zM346.3 21.8c.3 1 .7 2.1.8 3.1.3 6.7.5 13.4.7 20.1v.7c0 1.7-.9 2.7-2.2 2.7-1.3-.1-2-1-1.9-2.7.1-4.8.3-9.5.5-14.3.1-2.2.1-4.3.3-6.5.1-1 .6-2.1.9-3.1h.9z"/><path d="M343.5 71.8V60.6c0-1.7.8-2.6 2.2-2.6 1.3 0 2.1 1 2 2.6-.4 6.8-.8 13.7-1.3 20.5-.1.9-.3 1.8-.7 2.6-.4.8-1.1.8-1.5-.1-.3-.7-.4-1.4-.4-2.1v-9.7h-.3zM336.2 50.8h1.9c1.4-.1 2.3.6 2.4 2 .1 1.2-.9 2.1-2.4 2.1-3.6-.1-7.2-.3-10.9-.5-1.7-.1-3.4-.3-5-.6-.4-.1-.8-.7-1.2-1 .4-.3.8-.8 1.3-.9 1.9-.3 3.8-.5 5.7-.6 2.7-.2 5.5-.3 8.2-.5zM370.2 53.3c-1.1.3-2.1.7-3.2.7-4.5.3-9 .6-13.6.8-1.8.1-2.7-.6-2.6-2.1 0-1.4.8-2 2.6-2 4.8.2 9.6.4 14.4.7.8.1 1.7.6 2.5.9 0 .5-.1.8-.1 1zM350.7 55.5c.7.4 1.4.6 1.7 1.1 1.9 2.4 3.7 4.9 5.5 7.3.3.4.5.8.6 1.2.1.3.1 1-.1 1.1-.3.2-.9.2-1.2 0-1.1-.8-2.2-1.6-3.2-2.5-1.5-1.3-3.1-2.7-4.5-4.2-.5-.6-.7-1.7-.6-2.4.3-.7 1.2-1.1 1.8-1.6zM333.2 39c.8.4 1.7.7 2.4 1.3l6.3 5.4c1.3 1.2 1.4 2.4.3 3.3-1 .9-2.2.7-3.2-.5-1.8-2.2-3.6-4.5-5.4-6.8-.5-.6-.6-1.5-.9-2.2l.5-.5zM332.3 65.8c.4-.8.6-1.7 1.1-2.3 1.8-2.3 3.6-4.5 5.4-6.7.8-1 2.3-1.1 3.2-.3.9.8.9 2.2-.1 3.1-2.2 1.9-4.4 3.9-6.7 5.7-.6.5-1.5.7-2.3 1.1l-.6-.6zM350.3 49.7c-.6-.4-1.4-.8-1.6-1.3-.2-.7-.1-1.9.4-2.3 2.5-2.2 5.2-4.2 7.8-6.2.4-.3 1.1-.2 1.7-.3-.1.6 0 1.4-.3 1.8-2.1 2.6-4.2 5.1-6.3 7.5-.4.4-1 .5-1.7.8z"/></g><path fill="#32CBFF" d="M380.9 188.1c-3 3.2-7.4 3.9-14.7 3.9-5.9 0-10.6-.2-13.2-1.7-2.5-1.5-3.2-4-3.2-11.2v-52c0-4.9.3-7.8 1.4-9.5-1.7 1.2-3.3 2.4-4.9 3.7-2.3 1.8-4.5 3.7-6.6 5.7v53c0 11.2-1.2 12-12.3 12.7v4.1h59.9c1.1-4.1 4-16.9 4.8-20.9l-4.3-.6c-2.1 6.1-4.4 10.1-6.9 12.8zM398.8 196.8V193c8.6-.6 9.7-1.5 9.7-10.4v-27.5c0-8.1-.3-8.6-8.8-9.8v-3.4c6.8-1.3 12.6-2.9 18.1-5.5v46.2c0 8.8.9 9.8 9.7 10.4v3.8h-28.7zm7-78.4c0-3.9 3-6.7 6.7-6.7 3.5 0 6.2 2.8 6.2 6.7 0 3.4-2.7 6.5-6.4 6.5-3.5 0-6.5-3.1-6.5-6.5zM443.9 138.3v-2.2c0-4.2.5-8.4 1.3-11.2 1.1-3 3.2-9.4 10-15.7 4.7-4 9.8-6.4 14.6-7.2 4.6.4 8.6 2.1 10.7 4.8 1 1.3 1.1 3.1.6 4.6-.6 1.1-1.1 2-2.4 2.9-1.1 1-2.2 1-3.7-.3-2.2-2.2-6.1-4.6-10.4-4.6-3.8 0-5.9 1.4-7.9 3.9-1.7 2.5-3.5 9-3.5 20.3v4.6H469c.8 1.2.1 4.4-1.3 5.5h-14.5V182c0 9.7.8 10 11.5 11.2v3.5H434V193c8.6-.6 9.7-1.5 9.7-10v-39.1h-9.4l-.6-1.4 3.5-4.1h6.7zM520.9 186.1c-8.6 10-17.5 12.2-21.6 12.2-15.9 0-25.6-13.3-25.6-28.4 0-9.1 3.2-17.5 8.6-23.5 5.3-6 12.5-9.6 19.1-9.6h.1c11.1 0 19.9 9.8 19.9 20.4 0 3-.5 3.9-2.8 4.6-2.1.3-19.2 1.6-35.5 2.1.1 18.1 10.8 25.7 19.9 25.7 5.5 0 10.4-2.4 15.4-6.8l2.5 3.3zM498.5 142c-6.2 0-12.3 5.6-14.7 16.1 7.8.1 15.5 0 23.7-.2 2.6-.1 3.4-.9 3.4-2.9 0-7-4.8-13.1-12.2-13.1h-.2z"/></svg>