<?xml version="1.0" encoding="utf-8"?>
<!-- Generator: Adobe Illustrator 18.1.1, SVG Export Plug-In . SVG Version: 6.00 Build 0)  -->
<svg version="1.1" id="Calque_1" xmlns="http://www.w3.org/2000/svg" xmlns:xlink="http://www.w3.org/1999/xlink"
	 viewBox="0 0 120.6 111.4" enable-background="new 0 0 120.6 111.4" xml:space="preserve">
<path fill="#fcfcff" d="M51.9,107.2C25.8,107.6,9.4,81.7,9.4,81.7c21.3,11.3,30,3.3,30,3.3C18,89.8,2.2,73.2,2.2,73.2
	c2.5,0,4.5-1.3,4.5-1.3c-15-19,0-47,0-47c0,3.8,3.3,3.8,3.3,3.8c1.5-6.5,6.8-10.5,6.8-10.5c-0.5,5,3.2,7,3.2,7
	C23.8,9.7,45.1,0,45.1,0s-7.3,23.3,4.5,28s8.6,13.4,8.6,13.4c2.1,1,5.7,0.1,5.7,0.1c-7.7,5.3-3.3,23.5,16.5,22.2
	c19.8-1.3,10,10.6,19.2,3s21-29.2,21-29.2s-7.9,22.7-25,33.8C75,84.7,43.9,84.2,35.1,45.7c0,0,0.1,17.5,12.9,27.9
	c11.8,9.7,35.1,13.4,59.1-9.1c0,0,5.8,25.4-15.9,36.4c0,0,1.8-3,1-5.3c0,0-4.5,14.8-42.2,15.8c0,0,1.3-1,1.8-2
	C52.4,107.8,51.9,107.2,51.9,107.2z"/>
</svg>
